<svg width="22" height="23" viewBox="0 0 22 23" fill="none" xmlns="http://www.w3.org/2000/svg">
<path d="M9.16683 15.625L14.6668 11.5L9.16683 7.37498V15.625ZM11.0002 2.33331C5.94016 2.33331 1.8335 6.43998 1.8335 11.5C1.8335 16.56 5.94016 20.6666 11.0002 20.6666C16.0602 20.6666 20.1668 16.56 20.1668 11.5C20.1668 6.43998 16.0602 2.33331 11.0002 2.33331ZM11.0002 18.8333C6.95766 18.8333 3.66683 15.5425 3.66683 11.5C3.66683 7.45748 6.95766 4.16665 11.0002 4.16665C15.0427 4.16665 18.3335 7.45748 18.3335 11.5C18.3335 15.5425 15.0427 18.8333 11.0002 18.8333Z" fill="#101566"/>
</svg>
